<svg xmlns="http://www.w3.org/2000/svg" viewBox="0 0 200 200" width="200" height="200">
  <!-- Outer blue ring -->
  <circle cx="100" cy="100" r="95" fill="none" stroke="#1e40af" stroke-width="10"/>
  
  <!-- Inner light blue ring -->
  <circle cx="100" cy="100" r="80" fill="none" stroke="#3b82f6" stroke-width="6"/>
  
  <!-- Green accent ring -->
  <circle cx="100" cy="100" r="70" fill="none" stroke="#10b981" stroke-width="3"/>
  
  <!-- White background circle -->
  <circle cx="100" cy="100" r="65" fill="white"/>
  
  <!-- Garuda Pancasila -->
  <g transform="translate(100,100) scale(0.8)">
    <!-- Garuda body -->
    <ellipse cx="0" cy="5" rx="12" ry="18" fill="#d4af37"/>
    
    <!-- Garuda wings -->
    <path d="M-25,-5 Q-35,-15 -30,-25 Q-20,-20 -15,-10 Q-10,-5 -12,0 Z" fill="#d4af37"/>
    <path d="M25,-5 Q35,-15 30,-25 Q20,-20 15,-10 Q10,-5 12,0 Z" fill="#d4af37"/>
    
    <!-- Garuda head -->
    <circle cx="0" cy="-15" r="8" fill="#d4af37"/>
    
    <!-- Garuda beak -->
    <path d="M0,-20 L-3,-25 L3,-25 Z" fill="#fbbf24"/>
    
    <!-- Garuda tail feathers -->
    <path d="M-8,20 Q-15,30 -10,35 Q-5,30 0,25 Q5,30 10,35 Q15,30 8,20 Z" fill="#d4af37"/>
    
    <!-- Shield (Pancasila) -->
    <path d="M-8,-5 L8,-5 L8,15 L0,20 L-8,15 Z" fill="#dc2626"/>
    
    <!-- Pancasila symbol in shield -->
    <circle cx="0" cy="5" r="3" fill="#fbbf24"/>
    <polygon points="0,2 1,4 3,4 1.5,5.5 2,7 0,6 -2,7 -1.5,5.5 -3,4 -1,4" fill="#fbbf24"/>
  </g>
  
  <!-- Text around the circle -->
  <defs>
    <path id="top-curve" d="M 30,100 A 70,70 0 0,1 170,100"/>
    <path id="bottom-curve" d="M 170,100 A 70,70 0 0,1 30,100"/>
  </defs>
  
  <!-- Top text -->
  <text font-family="Arial, sans-serif" font-size="11" font-weight="bold" fill="#1e40af">
    <textPath href="#top-curve" startOffset="50%" text-anchor="middle">
      KEMENTERIAN KELAUTAN DAN PERIKANAN
    </textPath>
  </text>
  
  <!-- Bottom text -->
  <text font-family="Arial, sans-serif" font-size="11" font-weight="bold" fill="#1e40af">
    <textPath href="#bottom-curve" startOffset="50%" text-anchor="middle">
      REPUBLIK INDONESIA
    </textPath>
  </text>
</svg>